<mxfile host="Electron" modified="2023-09-26T14:34:40.553Z" agent="Mozilla/5.0 (Windows NT 10.0; Win64; x64) AppleWebKit/537.36 (KHTML, like Gecko) draw.io/21.7.5 Chrome/114.0.5735.289 Electron/25.8.1 Safari/537.36" etag="pNRCZrdeF5iGFt-a980a" version="21.7.5" type="device">
  <diagram name="Page-1" id="RgLAFF6ZJAaMnFaq09OC">
    <mxGraphModel dx="3810" dy="2831" grid="1" gridSize="10" guides="1" tooltips="1" connect="1" arrows="1" fold="1" page="1" pageScale="1" pageWidth="850" pageHeight="1100" math="0" shadow="0">
      <root>
        <mxCell id="0" />
        <mxCell id="1" parent="0" />
        <mxCell id="H_iCGJk6flqgCGRjibaX-1" value="Admin" style="shape=umlActor;verticalLabelPosition=bottom;verticalAlign=top;html=1;outlineConnect=0;" parent="1" vertex="1">
          <mxGeometry y="850" width="30" height="60" as="geometry" />
        </mxCell>
        <mxCell id="H_iCGJk6flqgCGRjibaX-7" value="" style="rounded=0;whiteSpace=wrap;html=1;" parent="1" vertex="1">
          <mxGeometry x="100" y="-40" width="1360" height="2120" as="geometry" />
        </mxCell>
        <mxCell id="sXqsaNHskc1ETz0bK0rT-1" value="Login" style="ellipse;whiteSpace=wrap;html=1;fontSize=15;" parent="1" vertex="1">
          <mxGeometry x="1240" y="1060" width="140" height="80" as="geometry" />
        </mxCell>
        <mxCell id="sXqsaNHskc1ETz0bK0rT-8" value="Profile management" style="ellipse;whiteSpace=wrap;html=1;fontSize=15;" parent="1" vertex="1">
          <mxGeometry x="345" y="187" width="140" height="80" as="geometry" />
        </mxCell>
        <mxCell id="sXqsaNHskc1ETz0bK0rT-10" value="Reset password" style="ellipse;whiteSpace=wrap;html=1;fontSize=15;" parent="1" vertex="1">
          <mxGeometry x="650" y="180" width="140" height="80" as="geometry" />
        </mxCell>
        <mxCell id="sXqsaNHskc1ETz0bK0rT-13" value="Logout" style="ellipse;whiteSpace=wrap;html=1;fontSize=15;" parent="1" vertex="1">
          <mxGeometry x="345" y="397" width="140" height="80" as="geometry" />
        </mxCell>
        <mxCell id="sXqsaNHskc1ETz0bK0rT-29" value="Extend" style="endArrow=open;html=1;rounded=0;endFill=0;endSize=12;dashed=1;dashPattern=8 8;entryX=0;entryY=0.5;entryDx=0;entryDy=0;exitX=1;exitY=0.5;exitDx=0;exitDy=0;fontSize=15;" parent="1" source="sXqsaNHskc1ETz0bK0rT-8" target="sXqsaNHskc1ETz0bK0rT-10" edge="1">
          <mxGeometry x="-0.4658" y="-4" width="50" height="50" relative="1" as="geometry">
            <mxPoint x="330" y="760" as="sourcePoint" />
            <mxPoint x="510" y="890" as="targetPoint" />
            <mxPoint as="offset" />
          </mxGeometry>
        </mxCell>
        <mxCell id="sXqsaNHskc1ETz0bK0rT-43" value="Include" style="endArrow=open;html=1;rounded=0;endFill=0;endSize=12;dashed=1;dashPattern=8 8;exitX=0.5;exitY=0;exitDx=0;exitDy=0;entryX=0.5;entryY=1;entryDx=0;entryDy=0;fontSize=15;" parent="1" source="sXqsaNHskc1ETz0bK0rT-13" target="sXqsaNHskc1ETz0bK0rT-8" edge="1">
          <mxGeometry x="-0.6573" width="50" height="50" relative="1" as="geometry">
            <mxPoint x="410" y="1093" as="sourcePoint" />
            <mxPoint x="380" y="800" as="targetPoint" />
            <mxPoint as="offset" />
          </mxGeometry>
        </mxCell>
        <mxCell id="iFcjaP-xYrjOrHcfpw8k-7" value="Read/Update" style="shape=note;size=20;whiteSpace=wrap;html=1;fontSize=15;" parent="1" vertex="1">
          <mxGeometry x="495" y="80" width="145" height="70" as="geometry" />
        </mxCell>
        <mxCell id="iFcjaP-xYrjOrHcfpw8k-8" value="" style="endArrow=none;dashed=1;html=1;rounded=0;exitX=0.594;exitY=0.035;exitDx=0;exitDy=0;entryX=0;entryY=0.5;entryDx=0;entryDy=0;entryPerimeter=0;exitPerimeter=0;" parent="1" source="sXqsaNHskc1ETz0bK0rT-8" target="iFcjaP-xYrjOrHcfpw8k-7" edge="1">
          <mxGeometry width="50" height="50" relative="1" as="geometry">
            <mxPoint x="540" y="390" as="sourcePoint" />
            <mxPoint x="590" y="340" as="targetPoint" />
          </mxGeometry>
        </mxCell>
        <mxCell id="iFcjaP-xYrjOrHcfpw8k-11" value="Employee Management" style="ellipse;whiteSpace=wrap;html=1;fontSize=15;" parent="1" vertex="1">
          <mxGeometry x="345" y="577" width="140" height="80" as="geometry" />
        </mxCell>
        <mxCell id="iFcjaP-xYrjOrHcfpw8k-12" value="Customer Management" style="ellipse;whiteSpace=wrap;html=1;fontSize=15;" parent="1" vertex="1">
          <mxGeometry x="345" y="850" width="140" height="80" as="geometry" />
        </mxCell>
        <mxCell id="iFcjaP-xYrjOrHcfpw8k-13" value="Product Management" style="ellipse;whiteSpace=wrap;html=1;fontSize=15;" parent="1" vertex="1">
          <mxGeometry x="345" y="1124" width="140" height="80" as="geometry" />
        </mxCell>
        <mxCell id="iFcjaP-xYrjOrHcfpw8k-14" value="Order status management" style="ellipse;whiteSpace=wrap;html=1;fontSize=15;" parent="1" vertex="1">
          <mxGeometry x="345" y="1384" width="140" height="80" as="geometry" />
        </mxCell>
        <mxCell id="iFcjaP-xYrjOrHcfpw8k-15" value="View employee ativity log" style="ellipse;whiteSpace=wrap;html=1;fontSize=15;" parent="1" vertex="1">
          <mxGeometry x="355" y="1622" width="140" height="80" as="geometry" />
        </mxCell>
        <mxCell id="iFcjaP-xYrjOrHcfpw8k-16" value="View statistic" style="ellipse;whiteSpace=wrap;html=1;fontSize=15;" parent="1" vertex="1">
          <mxGeometry x="345" y="1863" width="140" height="80" as="geometry" />
        </mxCell>
        <mxCell id="iFcjaP-xYrjOrHcfpw8k-28" value="" style="endArrow=none;html=1;rounded=0;entryX=0;entryY=0.5;entryDx=0;entryDy=0;" parent="1" target="iFcjaP-xYrjOrHcfpw8k-11" edge="1">
          <mxGeometry width="50" height="50" relative="1" as="geometry">
            <mxPoint x="40" y="890" as="sourcePoint" />
            <mxPoint x="420" y="690" as="targetPoint" />
          </mxGeometry>
        </mxCell>
        <mxCell id="iFcjaP-xYrjOrHcfpw8k-29" value="" style="endArrow=none;html=1;rounded=0;entryX=0;entryY=0.5;entryDx=0;entryDy=0;" parent="1" target="iFcjaP-xYrjOrHcfpw8k-12" edge="1">
          <mxGeometry width="50" height="50" relative="1" as="geometry">
            <mxPoint x="40" y="890" as="sourcePoint" />
            <mxPoint x="200" y="627" as="targetPoint" />
          </mxGeometry>
        </mxCell>
        <mxCell id="iFcjaP-xYrjOrHcfpw8k-30" value="" style="endArrow=none;html=1;rounded=0;entryX=0;entryY=0.5;entryDx=0;entryDy=0;" parent="1" target="iFcjaP-xYrjOrHcfpw8k-13" edge="1">
          <mxGeometry width="50" height="50" relative="1" as="geometry">
            <mxPoint x="40" y="890" as="sourcePoint" />
            <mxPoint x="180" y="767" as="targetPoint" />
          </mxGeometry>
        </mxCell>
        <mxCell id="iFcjaP-xYrjOrHcfpw8k-31" value="" style="endArrow=none;html=1;rounded=0;entryX=0;entryY=0.5;entryDx=0;entryDy=0;" parent="1" target="iFcjaP-xYrjOrHcfpw8k-14" edge="1">
          <mxGeometry width="50" height="50" relative="1" as="geometry">
            <mxPoint x="40" y="890" as="sourcePoint" />
            <mxPoint x="200" y="827" as="targetPoint" />
          </mxGeometry>
        </mxCell>
        <mxCell id="iFcjaP-xYrjOrHcfpw8k-32" value="" style="endArrow=none;html=1;rounded=0;entryX=0;entryY=0.5;entryDx=0;entryDy=0;" parent="1" target="iFcjaP-xYrjOrHcfpw8k-15" edge="1">
          <mxGeometry width="50" height="50" relative="1" as="geometry">
            <mxPoint x="40" y="890" as="sourcePoint" />
            <mxPoint x="200" y="927" as="targetPoint" />
          </mxGeometry>
        </mxCell>
        <mxCell id="iFcjaP-xYrjOrHcfpw8k-33" value="" style="endArrow=none;html=1;rounded=0;entryX=0;entryY=0.5;entryDx=0;entryDy=0;" parent="1" target="iFcjaP-xYrjOrHcfpw8k-16" edge="1">
          <mxGeometry width="50" height="50" relative="1" as="geometry">
            <mxPoint x="40" y="890" as="sourcePoint" />
            <mxPoint x="200" y="1027" as="targetPoint" />
          </mxGeometry>
        </mxCell>
        <mxCell id="iFcjaP-xYrjOrHcfpw8k-35" value="Include" style="endArrow=open;html=1;rounded=0;endFill=0;endSize=12;dashed=1;dashPattern=8 8;exitX=1;exitY=0.5;exitDx=0;exitDy=0;fontSize=15;entryX=0.073;entryY=0.25;entryDx=0;entryDy=0;entryPerimeter=0;" parent="1" source="iFcjaP-xYrjOrHcfpw8k-11" target="sXqsaNHskc1ETz0bK0rT-1" edge="1">
          <mxGeometry x="-0.8324" y="-1" width="50" height="50" relative="1" as="geometry">
            <mxPoint x="700" y="1155" as="sourcePoint" />
            <mxPoint x="1139.42" y="835.8400000000001" as="targetPoint" />
            <mxPoint x="-1" as="offset" />
            <Array as="points">
              <mxPoint x="870" y="640" />
            </Array>
          </mxGeometry>
        </mxCell>
        <mxCell id="iFcjaP-xYrjOrHcfpw8k-36" value="Include" style="endArrow=open;html=1;rounded=0;endFill=0;endSize=12;dashed=1;dashPattern=8 8;exitX=1;exitY=0.5;exitDx=0;exitDy=0;entryX=0;entryY=0.5;entryDx=0;entryDy=0;fontSize=15;" parent="1" source="iFcjaP-xYrjOrHcfpw8k-12" target="sXqsaNHskc1ETz0bK0rT-1" edge="1">
          <mxGeometry x="-0.752" y="4" width="50" height="50" relative="1" as="geometry">
            <mxPoint x="290" y="710" as="sourcePoint" />
            <mxPoint x="1125" y="860" as="targetPoint" />
            <mxPoint as="offset" />
            <Array as="points">
              <mxPoint x="860" y="860" />
            </Array>
          </mxGeometry>
        </mxCell>
        <mxCell id="iFcjaP-xYrjOrHcfpw8k-37" value="Include" style="endArrow=open;html=1;rounded=0;endFill=0;endSize=12;dashed=1;dashPattern=8 8;exitX=1;exitY=0.5;exitDx=0;exitDy=0;fontSize=15;entryX=0;entryY=1;entryDx=0;entryDy=0;" parent="1" source="iFcjaP-xYrjOrHcfpw8k-13" target="sXqsaNHskc1ETz0bK0rT-1" edge="1">
          <mxGeometry x="-0.8603" y="3" width="50" height="50" relative="1" as="geometry">
            <mxPoint x="320" y="804" as="sourcePoint" />
            <mxPoint x="1128.2199999999998" y="870.56" as="targetPoint" />
            <mxPoint as="offset" />
            <Array as="points">
              <mxPoint x="830" y="1100" />
            </Array>
          </mxGeometry>
        </mxCell>
        <mxCell id="iFcjaP-xYrjOrHcfpw8k-38" value="Include" style="endArrow=open;html=1;rounded=0;endFill=0;endSize=12;dashed=1;dashPattern=8 8;exitX=1;exitY=0.5;exitDx=0;exitDy=0;fontSize=15;entryX=0.293;entryY=0.959;entryDx=0;entryDy=0;entryPerimeter=0;" parent="1" source="iFcjaP-xYrjOrHcfpw8k-14" target="sXqsaNHskc1ETz0bK0rT-1" edge="1">
          <mxGeometry x="-0.6573" width="50" height="50" relative="1" as="geometry">
            <mxPoint x="330" y="897" as="sourcePoint" />
            <mxPoint x="1140.96" y="886" as="targetPoint" />
            <mxPoint as="offset" />
            <Array as="points">
              <mxPoint x="880" y="1350" />
            </Array>
          </mxGeometry>
        </mxCell>
        <mxCell id="iFcjaP-xYrjOrHcfpw8k-40" value="Include" style="endArrow=open;html=1;rounded=0;endFill=0;endSize=12;dashed=1;dashPattern=8 8;exitX=1;exitY=0.5;exitDx=0;exitDy=0;fontSize=15;entryX=0.5;entryY=1;entryDx=0;entryDy=0;" parent="1" source="iFcjaP-xYrjOrHcfpw8k-15" target="sXqsaNHskc1ETz0bK0rT-1" edge="1">
          <mxGeometry x="-0.6573" width="50" height="50" relative="1" as="geometry">
            <mxPoint x="370" y="1004" as="sourcePoint" />
            <mxPoint x="1157.48" y="895.04" as="targetPoint" />
            <mxPoint as="offset" />
            <Array as="points">
              <mxPoint x="840" y="1610" />
            </Array>
          </mxGeometry>
        </mxCell>
        <mxCell id="iFcjaP-xYrjOrHcfpw8k-41" value="Include" style="endArrow=open;html=1;rounded=0;endFill=0;endSize=12;dashed=1;dashPattern=8 8;exitX=1;exitY=0.5;exitDx=0;exitDy=0;fontSize=15;entryX=1;entryY=1;entryDx=0;entryDy=0;" parent="1" source="iFcjaP-xYrjOrHcfpw8k-16" target="sXqsaNHskc1ETz0bK0rT-1" edge="1">
          <mxGeometry x="-0.6573" width="50" height="50" relative="1" as="geometry">
            <mxPoint x="340" y="1027" as="sourcePoint" />
            <mxPoint x="1178.9" y="900.96" as="targetPoint" />
            <mxPoint as="offset" />
            <Array as="points">
              <mxPoint x="830" y="1860" />
            </Array>
          </mxGeometry>
        </mxCell>
        <mxCell id="aF5UOIuIdl0SDj_h38De-6" value="Search Employee" style="ellipse;whiteSpace=wrap;html=1;fontSize=15;" parent="1" vertex="1">
          <mxGeometry x="675" y="650" width="140" height="80" as="geometry" />
        </mxCell>
        <mxCell id="aF5UOIuIdl0SDj_h38De-7" value="Extend" style="endArrow=open;html=1;rounded=0;endFill=0;endSize=12;dashed=1;dashPattern=8 8;entryX=0;entryY=0.5;entryDx=0;entryDy=0;fontSize=15;exitX=0.942;exitY=0.749;exitDx=0;exitDy=0;exitPerimeter=0;" parent="1" source="iFcjaP-xYrjOrHcfpw8k-11" target="aF5UOIuIdl0SDj_h38De-6" edge="1">
          <mxGeometry x="-0.4603" y="-4" width="50" height="50" relative="1" as="geometry">
            <mxPoint x="340" y="630" as="sourcePoint" />
            <mxPoint x="530" y="790" as="targetPoint" />
            <mxPoint as="offset" />
          </mxGeometry>
        </mxCell>
        <mxCell id="aF5UOIuIdl0SDj_h38De-9" value="Search Customer" style="ellipse;whiteSpace=wrap;html=1;fontSize=15;" parent="1" vertex="1">
          <mxGeometry x="620" y="910" width="140" height="80" as="geometry" />
        </mxCell>
        <mxCell id="aF5UOIuIdl0SDj_h38De-10" value="Extend" style="endArrow=open;html=1;rounded=0;endFill=0;endSize=12;dashed=1;dashPattern=8 8;entryX=0;entryY=0.5;entryDx=0;entryDy=0;fontSize=15;exitX=0.956;exitY=0.739;exitDx=0;exitDy=0;exitPerimeter=0;" parent="1" source="iFcjaP-xYrjOrHcfpw8k-12" target="aF5UOIuIdl0SDj_h38De-9" edge="1">
          <mxGeometry x="-0.5281" y="-5" width="50" height="50" relative="1" as="geometry">
            <mxPoint x="270" y="840" as="sourcePoint" />
            <mxPoint x="460" y="913" as="targetPoint" />
            <mxPoint as="offset" />
          </mxGeometry>
        </mxCell>
        <mxCell id="aF5UOIuIdl0SDj_h38De-11" value="Search Product" style="ellipse;whiteSpace=wrap;html=1;fontSize=15;" parent="1" vertex="1">
          <mxGeometry x="685" y="1204" width="140" height="80" as="geometry" />
        </mxCell>
        <mxCell id="aF5UOIuIdl0SDj_h38De-12" value="Extend" style="endArrow=open;html=1;rounded=0;endFill=0;endSize=12;dashed=1;dashPattern=8 8;entryX=0;entryY=0.5;entryDx=0;entryDy=0;fontSize=15;exitX=0.947;exitY=0.715;exitDx=0;exitDy=0;exitPerimeter=0;" parent="1" source="iFcjaP-xYrjOrHcfpw8k-13" target="aF5UOIuIdl0SDj_h38De-11" edge="1">
          <mxGeometry x="-0.5281" y="-5" width="50" height="50" relative="1" as="geometry">
            <mxPoint x="280" y="980" as="sourcePoint" />
            <mxPoint x="480" y="1090" as="targetPoint" />
            <mxPoint as="offset" />
          </mxGeometry>
        </mxCell>
        <mxCell id="aF5UOIuIdl0SDj_h38De-13" value="Search Order" style="ellipse;whiteSpace=wrap;html=1;fontSize=15;" parent="1" vertex="1">
          <mxGeometry x="690" y="1454" width="140" height="80" as="geometry" />
        </mxCell>
        <mxCell id="aF5UOIuIdl0SDj_h38De-14" value="Extend" style="endArrow=open;html=1;rounded=0;endFill=0;endSize=12;dashed=1;dashPattern=8 8;entryX=0;entryY=0.5;entryDx=0;entryDy=0;fontSize=15;exitX=0.969;exitY=0.659;exitDx=0;exitDy=0;exitPerimeter=0;" parent="1" source="iFcjaP-xYrjOrHcfpw8k-14" target="aF5UOIuIdl0SDj_h38De-13" edge="1">
          <mxGeometry x="-0.5281" y="-5" width="50" height="50" relative="1" as="geometry">
            <mxPoint x="320" y="1080" as="sourcePoint" />
            <mxPoint x="520" y="1160" as="targetPoint" />
            <mxPoint as="offset" />
          </mxGeometry>
        </mxCell>
        <mxCell id="aF5UOIuIdl0SDj_h38De-15" value="Search employee" style="ellipse;whiteSpace=wrap;html=1;fontSize=15;" parent="1" vertex="1">
          <mxGeometry x="685" y="1720" width="140" height="80" as="geometry" />
        </mxCell>
        <mxCell id="aF5UOIuIdl0SDj_h38De-16" value="Filter Action" style="ellipse;whiteSpace=wrap;html=1;fontSize=15;" parent="1" vertex="1">
          <mxGeometry x="685" y="1640" width="140" height="80" as="geometry" />
        </mxCell>
        <mxCell id="aF5UOIuIdl0SDj_h38De-17" value="Extend" style="endArrow=open;html=1;rounded=0;endFill=0;endSize=12;dashed=1;dashPattern=8 8;entryX=0;entryY=0.5;entryDx=0;entryDy=0;fontSize=15;exitX=0.963;exitY=0.689;exitDx=0;exitDy=0;exitPerimeter=0;" parent="1" source="iFcjaP-xYrjOrHcfpw8k-15" target="aF5UOIuIdl0SDj_h38De-15" edge="1">
          <mxGeometry x="-0.5281" y="-5" width="50" height="50" relative="1" as="geometry">
            <mxPoint x="350" y="1310" as="sourcePoint" />
            <mxPoint x="555" y="1380" as="targetPoint" />
            <mxPoint as="offset" />
          </mxGeometry>
        </mxCell>
        <mxCell id="aF5UOIuIdl0SDj_h38De-18" value="Extend" style="endArrow=open;html=1;rounded=0;endFill=0;endSize=12;dashed=1;dashPattern=8 8;fontSize=15;exitX=1;exitY=1;exitDx=0;exitDy=0;" parent="1" source="iFcjaP-xYrjOrHcfpw8k-15" target="aF5UOIuIdl0SDj_h38De-16" edge="1">
          <mxGeometry x="-0.5281" y="-5" width="50" height="50" relative="1" as="geometry">
            <mxPoint x="340" y="1220" as="sourcePoint" />
            <mxPoint x="525" y="1350" as="targetPoint" />
            <mxPoint as="offset" />
          </mxGeometry>
        </mxCell>
        <mxCell id="aF5UOIuIdl0SDj_h38De-19" value="Filter Time" style="ellipse;whiteSpace=wrap;html=1;fontSize=15;" parent="1" vertex="1">
          <mxGeometry x="690" y="1933" width="140" height="80" as="geometry" />
        </mxCell>
        <mxCell id="aF5UOIuIdl0SDj_h38De-20" value="Extend" style="endArrow=open;html=1;rounded=0;endFill=0;endSize=12;dashed=1;dashPattern=8 8;fontSize=15;exitX=0.94;exitY=0.774;exitDx=0;exitDy=0;entryX=0;entryY=0.5;entryDx=0;entryDy=0;exitPerimeter=0;" parent="1" source="iFcjaP-xYrjOrHcfpw8k-16" target="aF5UOIuIdl0SDj_h38De-19" edge="1">
          <mxGeometry x="-0.5281" y="-5" width="50" height="50" relative="1" as="geometry">
            <mxPoint x="295" y="1552" as="sourcePoint" />
            <mxPoint x="520" y="1650" as="targetPoint" />
            <mxPoint as="offset" />
          </mxGeometry>
        </mxCell>
        <mxCell id="aF5UOIuIdl0SDj_h38De-22" value="" style="endArrow=none;html=1;rounded=0;entryX=0;entryY=0.5;entryDx=0;entryDy=0;" parent="1" target="sXqsaNHskc1ETz0bK0rT-8" edge="1">
          <mxGeometry width="50" height="50" relative="1" as="geometry">
            <mxPoint x="40" y="890" as="sourcePoint" />
            <mxPoint x="200" y="90" as="targetPoint" />
          </mxGeometry>
        </mxCell>
        <mxCell id="aF5UOIuIdl0SDj_h38De-23" value="" style="endArrow=none;html=1;rounded=0;entryX=0;entryY=0.5;entryDx=0;entryDy=0;" parent="1" target="sXqsaNHskc1ETz0bK0rT-13" edge="1">
          <mxGeometry width="50" height="50" relative="1" as="geometry">
            <mxPoint x="40" y="890" as="sourcePoint" />
            <mxPoint x="200" y="237" as="targetPoint" />
          </mxGeometry>
        </mxCell>
        <mxCell id="aF5UOIuIdl0SDj_h38De-36" value="Include" style="endArrow=open;html=1;rounded=0;endFill=0;endSize=12;dashed=1;dashPattern=8 8;exitX=1;exitY=1;exitDx=0;exitDy=0;fontSize=15;entryX=0.666;entryY=0.061;entryDx=0;entryDy=0;entryPerimeter=0;" parent="1" source="sXqsaNHskc1ETz0bK0rT-8" target="sXqsaNHskc1ETz0bK0rT-1" edge="1">
          <mxGeometry x="-0.8324" y="-1" width="50" height="50" relative="1" as="geometry">
            <mxPoint x="660" y="307" as="sourcePoint" />
            <mxPoint x="1343" y="513" as="targetPoint" />
            <mxPoint x="-1" as="offset" />
            <Array as="points">
              <mxPoint x="970" y="380" />
            </Array>
          </mxGeometry>
        </mxCell>
        <mxCell id="aF5UOIuIdl0SDj_h38De-37" value="Include" style="endArrow=open;html=1;rounded=0;endFill=0;endSize=12;dashed=1;dashPattern=8 8;fontSize=15;entryX=0.301;entryY=0.061;entryDx=0;entryDy=0;entryPerimeter=0;" parent="1" target="sXqsaNHskc1ETz0bK0rT-1" edge="1">
          <mxGeometry x="-0.8324" y="-1" width="50" height="50" relative="1" as="geometry">
            <mxPoint x="480" y="440" as="sourcePoint" />
            <mxPoint x="1540" y="805" as="targetPoint" />
            <mxPoint x="-1" as="offset" />
            <Array as="points">
              <mxPoint x="930" y="460" />
            </Array>
          </mxGeometry>
        </mxCell>
        <mxCell id="aF5UOIuIdl0SDj_h38De-39" value="" style="endArrow=none;html=1;rounded=0;entryX=0.758;entryY=0.071;entryDx=0;entryDy=0;entryPerimeter=0;" parent="1" target="sXqsaNHskc1ETz0bK0rT-1" edge="1">
          <mxGeometry width="50" height="50" relative="1" as="geometry">
            <mxPoint x="40" y="890" as="sourcePoint" />
            <mxPoint x="760" y="510" as="targetPoint" />
            <Array as="points">
              <mxPoint x="290" y="30" />
              <mxPoint x="1130" y="40" />
            </Array>
          </mxGeometry>
        </mxCell>
        <mxCell id="1fJ8eYfrGRemQdXwZB7R-1" value="Create/Read/Update/Delete" style="shape=note;size=20;whiteSpace=wrap;html=1;fontSize=15;" vertex="1" parent="1">
          <mxGeometry x="495" y="490" width="235" height="70" as="geometry" />
        </mxCell>
        <mxCell id="1fJ8eYfrGRemQdXwZB7R-2" value="" style="endArrow=none;dashed=1;html=1;rounded=0;entryX=0;entryY=0.5;entryDx=0;entryDy=0;entryPerimeter=0;" edge="1" parent="1" source="iFcjaP-xYrjOrHcfpw8k-11" target="1fJ8eYfrGRemQdXwZB7R-1">
          <mxGeometry width="50" height="50" relative="1" as="geometry">
            <mxPoint x="310" y="625" as="sourcePoint" />
            <mxPoint x="377" y="550" as="targetPoint" />
          </mxGeometry>
        </mxCell>
        <mxCell id="1fJ8eYfrGRemQdXwZB7R-3" value="" style="endArrow=none;dashed=1;html=1;rounded=0;entryX=0;entryY=0.5;entryDx=0;entryDy=0;entryPerimeter=0;exitX=0.5;exitY=0;exitDx=0;exitDy=0;" edge="1" parent="1" source="iFcjaP-xYrjOrHcfpw8k-12" target="1fJ8eYfrGRemQdXwZB7R-5">
          <mxGeometry width="50" height="50" relative="1" as="geometry">
            <mxPoint x="355" y="689.65" as="sourcePoint" />
            <mxPoint x="-0.9999999999997726" y="459.996555323591" as="targetPoint" />
          </mxGeometry>
        </mxCell>
        <mxCell id="1fJ8eYfrGRemQdXwZB7R-5" value="Create/Read/Update/Delete" style="shape=note;size=20;whiteSpace=wrap;html=1;fontSize=15;" vertex="1" parent="1">
          <mxGeometry x="485" y="760" width="235" height="70" as="geometry" />
        </mxCell>
        <mxCell id="1fJ8eYfrGRemQdXwZB7R-6" value="Create/Read/Update/Delete" style="shape=note;size=20;whiteSpace=wrap;html=1;fontSize=15;" vertex="1" parent="1">
          <mxGeometry x="485" y="1025" width="235" height="70" as="geometry" />
        </mxCell>
        <mxCell id="1fJ8eYfrGRemQdXwZB7R-7" value="" style="endArrow=none;dashed=1;html=1;rounded=0;entryX=0;entryY=0.5;entryDx=0;entryDy=0;entryPerimeter=0;exitX=0.5;exitY=0;exitDx=0;exitDy=0;" edge="1" parent="1" source="iFcjaP-xYrjOrHcfpw8k-13" target="1fJ8eYfrGRemQdXwZB7R-6">
          <mxGeometry width="50" height="50" relative="1" as="geometry">
            <mxPoint x="390" y="1045" as="sourcePoint" />
            <mxPoint x="460" y="990" as="targetPoint" />
          </mxGeometry>
        </mxCell>
        <mxCell id="1fJ8eYfrGRemQdXwZB7R-8" value="Create/Read/Update/Delete" style="shape=note;size=20;whiteSpace=wrap;html=1;fontSize=15;" vertex="1" parent="1">
          <mxGeometry x="485" y="1297" width="235" height="70" as="geometry" />
        </mxCell>
        <mxCell id="1fJ8eYfrGRemQdXwZB7R-13" value="" style="endArrow=none;dashed=1;html=1;rounded=0;entryX=0;entryY=0.5;entryDx=0;entryDy=0;entryPerimeter=0;exitX=0.5;exitY=0;exitDx=0;exitDy=0;" edge="1" parent="1" source="iFcjaP-xYrjOrHcfpw8k-14" target="1fJ8eYfrGRemQdXwZB7R-8">
          <mxGeometry width="50" height="50" relative="1" as="geometry">
            <mxPoint x="375" y="1320" as="sourcePoint" />
            <mxPoint x="425" y="1270" as="targetPoint" />
          </mxGeometry>
        </mxCell>
        <mxCell id="1fJ8eYfrGRemQdXwZB7R-14" value="Create/Read/Update/Delete" style="shape=note;size=20;whiteSpace=wrap;html=1;fontSize=15;" vertex="1" parent="1">
          <mxGeometry x="495" y="1534" width="235" height="70" as="geometry" />
        </mxCell>
        <mxCell id="1fJ8eYfrGRemQdXwZB7R-15" value="" style="endArrow=none;dashed=1;html=1;rounded=0;entryX=0;entryY=0.5;entryDx=0;entryDy=0;entryPerimeter=0;exitX=0.5;exitY=0;exitDx=0;exitDy=0;" edge="1" parent="1" source="iFcjaP-xYrjOrHcfpw8k-15" target="1fJ8eYfrGRemQdXwZB7R-14">
          <mxGeometry width="50" height="50" relative="1" as="geometry">
            <mxPoint x="390" y="1612" as="sourcePoint" />
            <mxPoint x="460" y="1560" as="targetPoint" />
          </mxGeometry>
        </mxCell>
        <mxCell id="1fJ8eYfrGRemQdXwZB7R-16" value="Create/Read/Update/Delete" style="shape=note;size=20;whiteSpace=wrap;html=1;fontSize=15;" vertex="1" parent="1">
          <mxGeometry x="480" y="1780" width="235" height="70" as="geometry" />
        </mxCell>
        <mxCell id="1fJ8eYfrGRemQdXwZB7R-17" value="" style="endArrow=none;dashed=1;html=1;rounded=0;entryX=0;entryY=0.5;entryDx=0;entryDy=0;entryPerimeter=0;exitX=0.5;exitY=0;exitDx=0;exitDy=0;" edge="1" parent="1" source="iFcjaP-xYrjOrHcfpw8k-16" target="1fJ8eYfrGRemQdXwZB7R-16">
          <mxGeometry width="50" height="50" relative="1" as="geometry">
            <mxPoint x="370" y="1833" as="sourcePoint" />
            <mxPoint x="440" y="1780" as="targetPoint" />
          </mxGeometry>
        </mxCell>
      </root>
    </mxGraphModel>
  </diagram>
</mxfile>
